<svg width="28" height="26" viewBox="0 0 28 26" fill="none" xmlns="http://www.w3.org/2000/svg">
<path d="M14 25L12.115 23.2731C5.42021 17.1663 1.00031 13.1376 1.00031 8.19372C0.991475 7.24605 1.17042 6.30612 1.52669 5.42893C1.88295 4.55175 2.40938 3.75493 3.07515 3.0851C3.74093 2.41527 4.53269 1.88589 5.4041 1.52792C6.27551 1.16996 7.20907 0.990617 8.15014 1.00038C9.26254 1.00889 10.3602 1.25729 11.3693 1.72885C12.3783 2.20041 13.2754 2.88419 14 3.73415C14.7246 2.88419 15.6217 2.20041 16.6307 1.72885C17.6398 1.25729 18.7375 1.00889 19.8499 1.00038C20.7909 0.990617 21.7245 1.16996 22.5959 1.52792C23.4673 1.88589 24.2591 2.41527 24.9248 3.0851C25.5906 3.75493 26.117 4.55175 26.4733 5.42893C26.8296 6.30612 27.0085 7.24605 26.9997 8.19372C26.9997 13.1376 22.5798 17.1663 15.885 23.2862L14 25Z" stroke="#DDDDDD" stroke-width="2" stroke-linecap="round" stroke-linejoin="round"/>
</svg>
