<svg width="26" height="24" viewBox="0 0 26 24" fill="none" xmlns="http://www.w3.org/2000/svg">
<path d="M13 24L11.115 22.2731C4.42021 16.1663 0.000312058 12.1376 0.000312058 7.19372C-0.00852534 6.24605 0.170424 5.30612 0.526688 4.42893C0.882953 3.55175 1.40938 2.75493 2.07515 2.0851C2.74093 1.41527 3.53269 0.885885 4.4041 0.527925C5.27551 0.169964 6.20907 -0.00938311 7.15014 0.000378061C8.26254 0.00889342 9.36022 0.257292 10.3693 0.728851C11.3783 1.20041 12.2754 1.88419 13 2.73415C13.7246 1.88419 14.6217 1.20041 15.6307 0.728851C16.6398 0.257292 17.7375 0.00889342 18.8499 0.000378061C19.7909 -0.00938311 20.7245 0.169964 21.5959 0.527925C22.4673 0.885885 23.2591 1.41527 23.9248 2.0851C24.5906 2.75493 25.117 3.55175 25.4733 4.42893C25.8296 5.30612 26.0085 6.24605 25.9997 7.19372C25.9997 12.1376 21.5798 16.1663 14.885 22.2862L13 24Z" fill="#E60012"/>
</svg>
